<?xml version="1.0" encoding="utf-8"?>
<!-- Generator: Adobe Illustrator 24.3.0, SVG Export Plug-In . SVG Version: 6.00 Build 0)  -->
<svg version="1.0" id="katman_1" xmlns="http://www.w3.org/2000/svg" xmlns:xlink="http://www.w3.org/1999/xlink" x="0px" y="0px"
	 viewBox="0 0 199.77 218.79" style="enable-background:new 0 0 199.77 218.79;" xml:space="preserve">
<style type="text/css">
	.st0{opacity:0.15;fill:#45413C;enable-background:new    ;}
	.st1{fill:#18B6EB;stroke:#45413C;stroke-width:4.7564;stroke-linecap:round;stroke-linejoin:round;}
	.st2{fill:#FFFCE7;}
	.st3{fill:#FFF9D0;}
	.st4{fill:#FFFFFF;}
	.st5{fill:none;stroke:#45413C;stroke-width:4.7564;stroke-linecap:round;stroke-linejoin:round;}
	.st6{fill:#F086AE;}
	.st7{fill:#EC6348;}
	.st8{fill:#F0836F;}
	.st9{fill:#5CC5F2;stroke:#45413C;stroke-width:4.7564;stroke-linecap:round;stroke-linejoin:round;}
	.st10{fill:#45413C;stroke:#45413C;stroke-width:4.7564;stroke-linecap:round;stroke-linejoin:round;}
</style>
<path class="st0" d="M23.73,211.66c0,1.89,8.02,3.71,22.29,5.04c14.27,1.34,33.63,2.09,53.81,2.09s39.54-0.75,53.81-2.09
	c14.27-1.34,22.29-3.15,22.29-5.04c0-1.89-8.02-3.71-22.29-5.04c-14.27-1.34-33.63-2.09-53.81-2.09s-39.54,0.75-53.81,2.09
	C31.75,207.95,23.73,209.77,23.73,211.66L23.73,211.66z"/>
<path class="st1" d="M188.64,40.91c2.6-3.6,4-7.93,4-12.37c0.01-2.81-0.54-5.6-1.62-8.2c-1.07-2.6-2.65-4.96-4.64-6.95
	c-1.99-1.99-4.35-3.57-6.95-4.64c-2.6-1.07-5.39-1.62-8.2-1.62c-4.44,0-8.77,1.39-12.37,4c-0.59-2.14-1.76-4.07-3.39-5.58
	c-1.63-1.51-3.64-2.53-5.82-2.95c-2.18-0.42-4.43-0.23-6.5,0.57c-2.07,0.79-3.88,2.15-5.22,3.92c-1.34,1.77-2.16,3.87-2.37,6.08
	c-0.21,2.21,0.21,4.43,1.2,6.42c0.99,1.99,2.52,3.65,4.41,4.82c1.89,1.16,4.07,1.77,6.29,1.76c0.9-0.01,1.79-0.13,2.66-0.33
	c-0.17,0.89-0.26,1.8-0.29,2.71c-0.01,2.81,0.54,5.6,1.62,8.2c1.07,2.6,2.65,4.96,4.64,6.95c1.99,1.99,4.35,3.57,6.95,4.64
	c2.6,1.07,5.39,1.62,8.2,1.62c0.91-0.02,1.82-0.12,2.71-0.29c-0.21,0.87-0.32,1.77-0.33,2.66c-0.01,2.22,0.6,4.4,1.76,6.29
	c1.16,1.89,2.83,3.42,4.82,4.41c1.99,0.99,4.21,1.41,6.42,1.2c2.21-0.21,4.32-1.03,6.08-2.37c1.77-1.34,3.12-3.15,3.92-5.22
	c0.79-2.07,0.99-4.33,0.57-6.5c-0.42-2.18-1.44-4.2-2.95-5.82C192.71,42.66,190.78,41.49,188.64,40.91L188.64,40.91z"/>
<path class="st1" d="M11.13,40.91c-2.6-3.6-4-7.93-4-12.37c-0.01-2.81,0.54-5.6,1.62-8.2s2.65-4.96,4.64-6.95
	c1.99-1.99,4.35-3.57,6.95-4.64c2.6-1.07,5.39-1.62,8.2-1.62c4.44,0,8.77,1.39,12.37,4c0.59-2.14,1.76-4.07,3.39-5.58
	c1.63-1.51,3.64-2.53,5.82-2.95c2.18-0.42,4.43-0.23,6.5,0.57c2.07,0.79,3.88,2.15,5.22,3.92c1.34,1.77,2.16,3.87,2.37,6.08
	c0.21,2.21-0.21,4.43-1.2,6.42c-0.99,1.99-2.52,3.65-4.41,4.82c-1.89,1.16-4.07,1.77-6.29,1.76c-0.9-0.01-1.79-0.13-2.66-0.33
	c0.17,0.89,0.26,1.8,0.29,2.71c0.01,2.81-0.54,5.6-1.62,8.2c-1.07,2.6-2.65,4.96-4.64,6.95c-1.99,1.99-4.35,3.57-6.95,4.64
	c-2.6,1.07-5.39,1.62-8.2,1.62c-0.91-0.02-1.82-0.12-2.71-0.29c0.21,0.87,0.32,1.77,0.33,2.66c0.01,2.22-0.6,4.4-1.76,6.29
	c-1.16,1.89-2.83,3.42-4.82,4.41c-1.99,0.99-4.21,1.41-6.42,1.2c-2.21-0.21-4.32-1.03-6.08-2.37c-1.77-1.34-3.12-3.15-3.92-5.22
	c-0.79-2.07-0.99-4.33-0.57-6.5c0.42-2.18,1.44-4.2,2.95-5.82C7.06,42.66,8.99,41.49,11.13,40.91L11.13,40.91z"/>
<path class="st2" d="M4.76,102.26c0,25.23,10.02,49.43,27.86,67.27c17.84,17.84,42.04,27.86,67.27,27.86
	c25.23,0,49.43-10.02,67.27-27.86c17.84-17.84,27.86-42.04,27.86-67.27c0-25.23-10.02-49.43-27.86-67.27
	C149.31,17.16,125.11,7.13,99.88,7.13C74.66,7.13,50.46,17.16,32.62,35C14.78,52.84,4.76,77.03,4.76,102.26L4.76,102.26z"/>
<path class="st3" d="M99.88,7.13c-18.81,0-37.21,5.58-52.85,16.03C31.39,33.62,19.2,48.48,12,65.86
	c-7.2,17.38-9.08,36.51-5.41,54.96s12.73,35.4,26.03,48.71c13.3,13.3,30.25,22.36,48.71,26.03c18.45,3.67,37.58,1.79,54.96-5.41
	c17.38-7.2,32.24-19.39,42.69-35.04c10.45-15.64,16.03-34.04,16.03-52.85c0-25.23-10.02-49.43-27.86-67.27
	C149.31,17.16,125.11,7.13,99.88,7.13L99.88,7.13z M99.88,183.12c-17.17,0-33.95-5.09-48.23-14.63
	c-14.27-9.54-25.4-23.1-31.97-38.96s-8.29-33.31-4.94-50.15C18.1,62.54,26.36,47.08,38.5,34.94C50.64,22.8,66.11,14.53,82.95,11.18
	s34.29-1.63,50.15,4.94c15.86,6.57,29.42,17.7,38.96,31.97c9.54,14.27,14.63,31.06,14.63,48.23c0,23.02-9.15,45.1-25.42,61.38
	C144.99,173.98,122.91,183.12,99.88,183.12L99.88,183.12z"/>
<path class="st4" d="M71.35,26.16c0,1.89,3.01,3.71,8.36,5.04c5.35,1.34,12.61,2.09,20.18,2.09s14.83-0.75,20.18-2.09
	c5.35-1.34,8.36-3.15,8.36-5.04c0-1.89-3.01-3.71-8.36-5.04c-5.35-1.34-12.61-2.09-20.18-2.09s-14.83,0.75-20.18,2.09
	C74.35,22.45,71.35,24.27,71.35,26.16z"/>
<path class="st5" d="M4.76,102.26c0,25.23,10.02,49.43,27.86,67.27c17.84,17.84,42.04,27.86,67.27,27.86
	c25.23,0,49.43-10.02,67.27-27.86c17.84-17.84,27.86-42.04,27.86-67.27c0-25.23-10.02-49.43-27.86-67.27
	C149.31,17.16,125.11,7.13,99.88,7.13C74.66,7.13,50.46,17.16,32.62,35C14.78,52.84,4.76,77.03,4.76,102.26L4.76,102.26z"/>
<path class="st6" d="M171.23,126.04c0,3.95-5.33,7.13-11.89,7.13s-11.89-3.19-11.89-7.13c0-3.95,5.33-7.13,11.89-7.13
	S171.23,122.1,171.23,126.04z"/>
<path class="st6" d="M28.54,126.04c0,3.95,5.33,7.13,11.89,7.13s11.89-3.19,11.89-7.13c0-3.95-5.33-7.13-11.89-7.13
	S28.54,122.1,28.54,126.04z"/>
<path class="st7" d="M78.48,118.91c0,4.41,2.26,8.65,6.27,11.77c4.01,3.12,9.46,4.88,15.13,4.88c5.68,0,11.12-1.75,15.13-4.88
	c4.01-3.12,6.27-7.36,6.27-11.77s-2.26-8.65-6.27-11.77c-4.01-3.12-9.46-4.88-15.13-4.88c-5.68,0-11.12,1.75-15.13,4.88
	C80.74,110.26,78.48,114.5,78.48,118.91L78.48,118.91z"/>
<path class="st8" d="M99.88,111.78c4.2-0.25,8.37,0.74,12,2.86c3.63,2.12,6.56,5.26,8.4,9.03c0.62-1.51,0.96-3.12,1-4.76
	c0-9.18-9.51-16.65-21.4-16.65s-21.4,7.47-21.4,16.65c0.04,1.63,0.38,3.24,1,4.76c1.85-3.77,4.77-6.91,8.4-9.03
	C91.51,112.52,95.69,111.52,99.88,111.78L99.88,111.78z"/>
<path class="st5" d="M78.48,118.91c0,4.41,2.26,8.65,6.27,11.77c4.01,3.12,9.46,4.88,15.13,4.88c5.68,0,11.12-1.75,15.13-4.88
	c4.01-3.12,6.27-7.36,6.27-11.77s-2.26-8.65-6.27-11.77c-4.01-3.12-9.46-4.88-15.13-4.88c-5.68,0-11.12,1.75-15.13,4.88
	C80.74,110.26,78.48,114.5,78.48,118.91L78.48,118.91z"/>
<path class="st7" d="M99.88,175.99c-8.11,0.24-16.16-1.34-23.57-4.63c-7.41-3.29-13.98-8.21-19.23-14.39
	c-0.94-1.25-1.62-2.67-2.01-4.18c-0.39-1.51-0.47-3.09-0.25-4.63c0.22-1.55,0.74-3.03,1.54-4.38c0.8-1.34,1.85-2.52,3.1-3.45
	c2.52-1.89,5.69-2.7,8.82-2.26s5.94,2.11,7.83,4.64c3.04,3.21,6.74,5.73,10.85,7.37c4.11,1.64,8.52,2.37,12.94,2.14
	c4.42,0.25,8.84-0.47,12.95-2.11c4.11-1.64,7.81-4.17,10.83-7.4c1.93-2.46,4.74-4.08,7.84-4.51c3.1-0.43,6.24,0.37,8.76,2.22
	c1.25,0.92,2.3,2.09,3.1,3.42c0.8,1.33,1.33,2.81,1.55,4.35c0.23,1.54,0.14,3.11-0.24,4.61c-0.38,1.51-1.06,2.92-1.99,4.17
	c-5.25,6.18-11.82,11.1-19.23,14.39C116.05,174.65,107.99,176.23,99.88,175.99L99.88,175.99z"/>
<path class="st8" d="M140.27,140.41c-2.52-1.85-5.66-2.65-8.76-2.22c-3.1,0.43-5.91,2.04-7.84,4.51c-3.03,3.23-6.73,5.75-10.84,7.4
	c-4.11,1.64-8.53,2.37-12.95,2.12c-4.42,0.23-8.83-0.5-12.94-2.14c-4.11-1.64-7.81-4.16-10.85-7.37c-1.43-1.95-3.43-3.42-5.72-4.2
	c-2.29-0.78-4.77-0.84-7.09-0.17c-2.33,0.67-4.39,2.03-5.92,3.91c-1.53,1.88-2.44,4.18-2.62,6.6c1.37-1.16,2.96-2.03,4.68-2.56
	c1.72-0.52,3.53-0.68,5.32-0.47c1.79,0.21,3.51,0.78,5.06,1.69c1.55,0.9,2.9,2.12,3.96,3.57c3.32,3.56,7.37,6.36,11.88,8.2
	c4.51,1.84,9.36,2.68,14.23,2.45c4.87,0.27,9.75-0.53,14.28-2.34c4.53-1.81,8.62-4.58,11.97-8.13c1.06-1.46,2.4-2.68,3.96-3.59
	c1.55-0.91,3.28-1.49,5.06-1.7c1.79-0.21,3.6-0.05,5.32,0.48c1.72,0.52,3.32,1.4,4.68,2.57c-0.15-1.7-0.66-3.36-1.51-4.84
	C142.81,142.69,141.66,141.41,140.27,140.41z"/>
<path class="st5" d="M99.88,175.99c-8.11,0.24-16.16-1.34-23.57-4.63c-7.41-3.29-13.98-8.21-19.23-14.39
	c-0.94-1.25-1.62-2.67-2.01-4.18c-0.39-1.51-0.47-3.09-0.25-4.63c0.22-1.55,0.74-3.03,1.54-4.38c0.8-1.34,1.85-2.52,3.1-3.45
	c2.52-1.89,5.69-2.7,8.82-2.26s5.94,2.11,7.83,4.64c3.04,3.21,6.74,5.73,10.85,7.37c4.11,1.64,8.52,2.37,12.94,2.14
	c4.42,0.25,8.84-0.47,12.95-2.11c4.11-1.64,7.81-4.17,10.83-7.4c1.93-2.46,4.74-4.08,7.84-4.51c3.1-0.43,6.24,0.37,8.76,2.22
	c1.25,0.92,2.3,2.09,3.1,3.42c0.8,1.33,1.33,2.81,1.55,4.35c0.23,1.54,0.14,3.11-0.24,4.61c-0.38,1.51-1.06,2.92-1.99,4.17
	c-5.25,6.18-11.82,11.1-19.23,14.39C116.05,174.65,107.99,176.23,99.88,175.99L99.88,175.99z"/>
<path class="st5" d="M68.97,152.21c0,0,8.94,11.89,30.92,11.89s30.92-11.89,30.92-11.89"/>
<path class="st9" d="M128.42,92.75c0,5.05,1.75,9.88,4.88,13.45c3.12,3.57,7.36,5.57,11.77,5.57c4.41,0,8.65-2,11.77-5.57
	s4.88-8.41,4.88-13.45c0-5.05-1.75-9.89-4.88-13.45c-3.12-3.57-7.36-5.57-11.77-5.57c-4.41,0-8.65,2-11.77,5.57
	C130.18,82.86,128.42,87.7,128.42,92.75z"/>
<path class="st9" d="M38.05,92.75c0,2.5,0.43,4.97,1.27,7.28c0.84,2.31,2.06,4.41,3.61,6.17c1.55,1.77,3.38,3.17,5.4,4.12
	c2.02,0.96,4.18,1.45,6.37,1.45c2.19,0,4.35-0.49,6.37-1.45c2.02-0.96,3.85-2.36,5.4-4.12c1.55-1.77,2.77-3.86,3.61-6.17
	c0.84-2.31,1.27-4.78,1.27-7.28c0-2.5-0.43-4.97-1.27-7.28c-0.84-2.31-2.06-4.41-3.61-6.17c-1.55-1.77-3.38-3.17-5.4-4.12
	c-2.02-0.96-4.18-1.45-6.37-1.45c-2.19,0-4.35,0.49-6.37,1.45c-2.02,0.96-3.85,2.36-5.4,4.12c-1.55,1.77-2.77,3.86-3.61,6.17
	C38.48,87.78,38.05,90.25,38.05,92.75L38.05,92.75z"/>
<path class="st10" d="M59.46,92.75c0,0.94-0.28,1.86-0.8,2.64c-0.52,0.78-1.27,1.39-2.13,1.75c-0.87,0.36-1.83,0.45-2.75,0.27
	c-0.92-0.18-1.77-0.64-2.44-1.3c-0.67-0.67-1.12-1.51-1.3-2.44c-0.18-0.92-0.09-1.88,0.27-2.75c0.36-0.87,0.97-1.61,1.75-2.14
	c0.78-0.52,1.7-0.8,2.64-0.8c1.26,0,2.47,0.5,3.36,1.39C58.95,90.28,59.46,91.49,59.46,92.75z"/>
<path class="st10" d="M140.31,92.75c0,0.94,0.28,1.86,0.8,2.64c0.52,0.78,1.27,1.39,2.13,1.75c0.87,0.36,1.83,0.45,2.75,0.27
	c0.92-0.18,1.77-0.64,2.44-1.3c0.66-0.67,1.12-1.51,1.3-2.44c0.18-0.92,0.09-1.88-0.27-2.75c-0.36-0.87-0.97-1.61-1.75-2.14
	c-0.78-0.52-1.7-0.8-2.64-0.8c-1.26,0-2.47,0.5-3.36,1.39C140.82,90.28,140.31,91.49,140.31,92.75z"/>
<path class="st5" d="M128.42,61.83c1.35-3.36,3.64-6.27,6.59-8.37c2.95-2.11,6.44-3.33,10.06-3.52c3.62,0.19,7.11,1.41,10.06,3.52
	c2.95,2.11,5.24,5.01,6.59,8.37"/>
<path class="st5" d="M38.05,61.83c1.35-3.36,3.64-6.27,6.59-8.37c2.95-2.11,6.44-3.33,10.06-3.52c3.62,0.19,7.11,1.41,10.06,3.52
	c2.95,2.11,5.24,5.01,6.59,8.37"/>
</svg>
